<svg id="Layer_1" data-name="Layer 1" xmlns="http://www.w3.org/2000/svg" viewBox="0 0 195.51 199"><defs><style>.cls-1{fill:#688eff;}</style></defs><circle class="cls-1" cx="125.55" cy="95.07" r="16.46"/><circle class="cls-1" cx="69.97" cy="95.07" r="16.46"/><path class="cls-1" d="M40.25,117c-.06-.28-.1-.57-.18-.85A62.71,62.71,0,0,1,38,92C41.1,62.16,66.12,38.28,96.14,36.47a62.44,62.44,0,0,1,63.69,80.12c0,.14-.06.29-.1.43H196A97.75,97.75,0,1,0,4,117Z" transform="translate(-2.26 -1)"/><path class="cls-1" d="M154.68,130.48l-4.08,5.64a62.39,62.39,0,0,1-101.18,0l-4.08-5.64-25.41,25.4L23.2,160A97.61,97.61,0,0,0,142.29,187.7l5.11,5.1A24.61,24.61,0,1,0,182.2,158Z" transform="translate(-2.26 -1)"/></svg>